<?xml version="1.0" encoding="UTF-8"?>
<svg xmlns="http://www.w3.org/2000/svg" viewBox="0 0 3962.92 3886.08">
  <rect width="3962.92" height="3886.08" rx="520" fill="#FDEFD5"/>
  <g transform="translate(0 0)">
    <path fill="#144A31" d="M179.65 1159.25c199.37,-132.93 376.91,-253.25 547.34,-369.48l0 -514.37c0,-50.04 40.93,-90.97 90.97,-90.97l190.6 0c50.04,0 90.97,40.93 90.97,90.97l0 259.72c206.41,-141.07 418.48,-285.41 663.49,-448.78 162.7,-93.94 171.66,-86.19 218.44,-86.19 46.78,0 55.74,-7.75 218.44,86.19 591.87,394.63 991.5,678.27 1583.37,1072.9 241.21,139.25 203.65,279.42 95.29,279.42l-444.43 0 0 2128.3c0,297.59 -19.63,319.11 -312.33,319.11l-939.44 0c256.26,-459.58 609.96,-1092.57 609.96,-1416.77 0,-444.66 -360.46,-805.12 -805.13,-805.12 -444.65,0 -805.11,360.46 -805.11,805.12 0,324.2 353.69,957.19 609.95,1416.77l-950.91 0c-292.7,0 -312.33,-21.52 -312.33,-319.11l0 -2128.3 -444.43 0c-108.36,0 -145.92,-140.17 95.29,-279.42z"/>
    <circle fill="#144A31" cx="1981.46" cy="2466.86" r="549.73"/>
  </g>
</svg>
